<svg aria-hidden="true" style="position:absolute;width:0;height:0" xmlns="http://www.w3.org/2000/svg" overflow="hidden"><defs><symbol id="icon-linkedin-1" viewBox="0 0 32 32"><path fill="var(--color1, #afb1b8)" d="M31.992 32v-.001H32V20.263c0-5.741-1.236-10.164-7.948-10.164-3.227 0-5.392 1.771-6.276 3.449h-.093v-2.913h-6.364v21.364h6.627V21.42c0-2.785.528-5.479 3.977-5.479 3.399 0 3.449 3.179 3.449 5.657v10.401h6.62zM.528 10.636h6.635V32H.528V10.636zM3.843 0C1.722 0 0 1.721 0 3.843s1.721 3.879 3.843 3.879c2.121 0 3.843-1.757 3.843-3.879A3.846 3.846 0 003.843 0z"/></symbol><symbol id="icon-logo-5-2" viewBox="0 0 40 32"><path fill="var(--color1, #afb1b8)" d="M3.055 26.742c.156.194.24.438.236.688a1.092 1.092 0 01-.365.869 1.575 1.575 0 01-1.061.317H0v-4.361h1.827c.361-.024.718.078 1.012.29a.998.998 0 01.354.816c.011.241-.065.477-.212.667a.997.997 0 01-.556.341c.247.045.471.177.63.373zm-2.187-.658h.781a.736.736 0 00.496-.145.515.515 0 00.167-.426.526.526 0 00-.165-.426.75.75 0 00-.511-.147H.868v1.144zm1.354 1.672a.54.54 0 00.185-.443.56.56 0 00-.188-.448.803.803 0 00-.53-.158H.87v1.199h.83a.822.822 0 00.524-.151zM6.79 28.617l-1.016-1.704h-.382v1.704h-.874v-4.361h1.655c.417-.029.83.104 1.152.371a1.394 1.394 0 01.123 1.804 1.342 1.342 0 01-.789.443l1.082 1.743H6.79zm-1.398-2.299h.715c.497 0 .745-.22.745-.66a.641.641 0 00-.183-.49.771.771 0 00-.562-.177h-.724l.008 1.327zM11.568 27.739H9.826l-.308.878h-.917l1.6-4.312h.991l1.593 4.312h-.917l-.301-.878zm-.233-.66l-.637-1.841-.637 1.841h1.273zM17.55 28.617h-.868l-1.946-2.965v2.965h-.866v-4.361h.866l1.946 2.983v-2.983h.868v4.361zM22.502 27.573a1.877 1.877 0 01-.785.769 2.546 2.546 0 01-1.22.275h-1.545v-4.361h1.545c.422-.011.841.081 1.22.268.332.168.606.433.785.761a2.541 2.541 0 010 2.288zm-.993-.104a1.601 1.601 0 000-2.082 1.506 1.506 0 00-1.086-.371h-.603v2.823h.603a1.5 1.5 0 001.086-.371zM12.111 0s11.201 4.246 10.963 10.39v10.392S11.881 16.534 12.115 10.39L12.111 0zM33.054 18.349a15.301 15.301 0 017.117-2.633v-3.253a14.62 14.62 0 00-7.117 5.886z"/><path fill="var(--color1, #afb1b8)" d="M31.783 19.329a15.237 15.237 0 018.388-7.548V2.407S24.219 8.455 24.557 17.204v14.795s.711-.27 1.829-.778c0-.473 0-.95.051-1.43a15.387 15.387 0 015.347-10.464z"/><path fill="var(--color1, #afb1b8)" d="M30.266 24.825a15.35 15.35 0 01.558-3.029 14.323 14.323 0 00-3.377 8.937c.906-.437 1.96-.982 3.068-1.623a15.355 15.355 0 01-.248-4.284zM30.9 24.878a14.705 14.705 0 00.197 3.879c4.358-2.618 9.255-6.664 9.067-11.553v-.426a14.276 14.276 0 00-8.292 3.89 14.648 14.648 0 00-.972 4.21z"/></symbol><symbol id="icon-logo-6-2" viewBox="0 0 62 32"><path fill="var(--color1, #afb1b8)" d="M31.124 14.854a2.264 2.264 0 01-.397-1.431v-2.075c0-.636.132-1.119.395-1.45s.715-.495 1.356-.494c.602 0 1.029.141 1.282.422.276.359.41.798.379 1.241v.488h-1.077v-.494a2.787 2.787 0 00-.031-.483.482.482 0 00-.154-.287.587.587 0 00-.39-.112.619.619 0 00-.41.118.563.563 0 00-.178.317 2.594 2.594 0 00-.042.513v2.518c-.017.243.031.486.138.707.054.075.128.134.215.171s.183.051.278.04a.545.545 0 00.381-.114.521.521 0 00.161-.306c.025-.167.036-.336.033-.505v-.511h1.077v.466c.03.462-.101.92-.372 1.304-.247.308-.669.462-1.289.462s-1.088-.165-1.353-.507zM35.607 14.876c-.272-.323-.408-.794-.408-1.416v-2.182c0-.616.136-1.083.408-1.399s.727-.474 1.364-.473c.633 0 1.086.158 1.358.473.272.317.41.783.41 1.399v2.182c0 .616-.138 1.089-.415 1.414s-.727.488-1.353.488-1.09-.165-1.364-.485zm1.867-.524c.097-.202.142-.424.129-.646v-2.672a1.275 1.275 0 00-.127-.633c-.055-.076-.131-.137-.22-.174s-.187-.05-.284-.037c-.097-.013-.195 0-.285.037s-.166.097-.221.174a1.255 1.255 0 00-.129.633v2.685c-.014.222.031.444.129.646.063.068.14.123.227.16a.708.708 0 00.554 0 .678.678 0 00.227-.16v-.013zM40.035 9.468h1.159l.872 4.027.892-4.027h1.128l.114 5.812h-.834l-.089-4.04-.861 4.04h-.669l-.892-4.054-.082 4.054h-.843l.105-5.812zM45.5 9.468h1.806c1.04 0 1.561.55 1.561 1.65 0 1.054-.548 1.58-1.643 1.579h-.615v2.583h-1.115l.007-5.812zm1.542 2.484c.11.013.222.004.328-.028s.203-.085.285-.156c.128-.196.184-.427.16-.656a1.999 1.999 0 00-.053-.528c-.016-.058-.044-.112-.082-.159s-.086-.087-.141-.117a1.072 1.072 0 00-.497-.093h-.432v1.737h.432zM50.474 9.468h1.197l1.228 5.812H51.86l-.243-1.34h-1.068l-.25 1.34h-1.055l1.228-5.812zm1.023 3.799l-.417-2.44-.417 2.44h.834zM53.892 9.468h.78l1.494 3.316V9.468h.925v5.812h-.742l-1.503-3.461v3.461h-.957l.002-5.812zM59.258 13.064l-1.242-3.588h1.046l.758 2.305.711-2.305h1.023l-1.226 3.588v2.216h-1.07v-2.216zM32.845 17.822v.304h-.91v2.362h-.381v-2.362h-.914v-.304h2.205zM35.697 20.488h-.294a.124.124 0 01-.083-.025.139.139 0 01-.049-.061l-.263-.633h-1.262l-.263.633a.177.177 0 01-.04.072.122.122 0 01-.083.025h-.294l1.115-2.666h.388l1.128 2.655zm-1.847-.99h1.052l-.446-1.085a2.234 2.234 0 01-.083-.251l-.042.141-.04.112-.441 1.083zM37.618 20.226a1.071 1.071 0 00.388-.032c.055-.013.108-.029.16-.049.049-.019.098-.042.149-.065v-.599h-.446c-.011.001-.022-.001-.032-.005a.081.081 0 01-.045-.039.05.05 0 01-.005-.027v-.205h.865v1.022a1.557 1.557 0 01-.47.218 1.86 1.86 0 01-.279.055 3.216 3.216 0 01-.325.017 1.56 1.56 0 01-.562-.099 1.34 1.34 0 01-.446-.279 1.3 1.3 0 01-.288-.422 1.459 1.459 0 01-.103-.553c-.002-.19.032-.379.1-.557.064-.158.162-.302.288-.422.127-.12.279-.214.446-.277.191-.068.394-.102.597-.099.104 0 .207.008.31.023a1.412 1.412 0 01.488.174c.068.042.133.088.194.139l-.107.165a.098.098 0 01-.087.051.136.136 0 01-.069-.021 1.538 1.538 0 01-.109-.063.975.975 0 00-.149-.072 1.301 1.301 0 00-.205-.059 1.574 1.574 0 00-.283-.023 1.187 1.187 0 00-.43.074.93.93 0 00-.328.211.943.943 0 00-.207.331c-.1.289-.1.6 0 .889a.964.964 0 00.548.547c.142.046.292.064.441.053zM41.172 20.184h1.217v.304h-1.59v-2.666h.381l-.009 2.362zM43.656 20.488h-.381v-2.666h.381v2.666zM45.074 17.834a.183.183 0 01.058.049l1.63 2.009a.753.753 0 010-.095V17.81h.332v2.676h-.192a.17.17 0 01-.083-.015.196.196 0 01-.06-.051l-1.628-2.007v2.073h-.319V17.82h.198c.022 0 .043.004.062.013zM49.901 17.822v.293H48.55v.88h1.095v.283H48.55v.91h1.351v.293h-1.743v-2.659h1.743zM9.95 1.359L26.879 5.91v15.946L9.95 17.308V1.36zM8.864 0v18.082l19.098 5.135V5.137L8.864 0z"/><path fill="var(--color1, #afb1b8)" d="M19.1 31.611L0 26.472V8.392l19.1 5.137v18.082z"/><path fill="var(--color1, #afb1b8)" d="M9.181 1.155l16.708 4.493-7.105 6.729-16.71-4.496 7.108-6.726zM8.864 0L0 8.392l19.1 5.137 8.862-8.392L8.864 0zM20.175 30.593l7.788-7.374-7.788-2.096v9.47z"/></symbol><symbol id="icon-envelope-2" viewBox="0 0 43 32"><path fill="var(--color2, #757575)" d="M38.667 0H4C1.794 0 0 1.794 0 4v24c0 2.206 1.794 4 4 4h34.667c2.206 0 4-1.794 4-4V4c0-2.206-1.794-4-4-4zm0 2.667c.181 0 .353.038.511.103L21.334 18.236 3.49 2.77a1.32 1.32 0 01.511-.103h34.667zm0 26.666H4A1.334 1.334 0 012.667 28V5.587L20.46 21.008a1.335 1.335 0 001.748 0L40.001 5.587V28c0 .736-.598 1.333-1.333 1.333z"/></symbol><symbol id="icon-twitter-1" viewBox="0 0 32 32"><path fill="var(--color1, #afb1b8)" d="M32 6.078c-1.19.522-2.458.868-3.78 1.036a6.523 6.523 0 002.886-3.626 13.11 13.11 0 01-4.16 1.588A6.574 6.574 0 0022.154 3c-3.632 0-6.556 2.948-6.556 6.562 0 .52.044 1.02.152 1.496-5.454-.266-10.28-2.88-13.522-6.862a6.605 6.605 0 00-.898 3.316 6.57 6.57 0 002.914 5.452 6.479 6.479 0 01-2.964-.808v.072c0 3.188 2.274 5.836 5.256 6.446a6.548 6.548 0 01-1.72.216 5.8 5.8 0 01-1.242-.112c.85 2.598 3.262 4.508 6.13 4.57a13.182 13.182 0 01-8.134 2.798c-.538 0-1.054-.024-1.57-.09A18.469 18.469 0 0010.064 29c12.072 0 18.672-10 18.672-18.668 0-.29-.01-.57-.024-.848A13.087 13.087 0 0032 6.078z"/></symbol><symbol id="icon-logo-2-2" viewBox="0 0 25 32"><path fill="var(--color1, #afb1b8)" d="M10.447 1.806h.084c.156 0 .324.016.49.03.734.052 1.463.162 2.179.329V.403a12.97 12.97 0 00-2.25-.358 18.11 18.11 0 00-.909-.044h-.263a18.35 18.35 0 00-4.515.582 18.3 18.3 0 00-4.79 1.948v17.475a19.484 19.484 0 014.566-1.779 19.948 19.948 0 013.833-.588h.051c.216-.011.433-.017.655-.019v-1.79a21.155 21.155 0 00-4.982.662 23.81 23.81 0 00-1.731.513l-.623.211V3.591l.266-.128a17.409 17.409 0 016.471-1.651.523.523 0 01.056 0c.248-.013.497-.019.741-.019h.28c.129.003.258.006.388.014z"/><path fill="var(--color1, #afb1b8)" d="M14.837 3.651a15.823 15.823 0 01-2.606-.211c-.277-.047-.55-.103-.814-.164v17.275a13.82 13.82 0 003.425.404 18.396 18.396 0 004.515-.581 18.362 18.362 0 004.792-1.948V1.263a19.58 19.58 0 01-4.564 1.781 19.388 19.388 0 01-4.747.609zm6.908.299l.623-.21v13.63l-.266.128a17.055 17.055 0 01-3.184 1.144c-1.331.344-2.7.522-4.074.527-.411 0-.819-.017-1.214-.052l-.427-.038V5.062l.497.033c.361.023.735.034 1.141.034a21.098 21.098 0 005.173-.663 26.802 26.802 0 001.731-.518zM1.684 25.977a.912.912 0 00-.693-.28 1.034 1.034 0 00-.4.075.91.91 0 00-.512.518 1.023 1.023 0 00-.072.387v2.335c-.006.165.026.328.092.479.055.12.135.226.233.313a.815.815 0 00.321.166c.114.032.231.048.349.049a.972.972 0 00.892-.61.951.951 0 00.075-.372v-.261h-.61v.208a.528.528 0 01-.036.208.359.359 0 01-.089.131.365.365 0 01-.128.067.425.425 0 01-.128.022.314.314 0 01-.286-.125.548.548 0 01-.081-.313v-2.177a.738.738 0 01.075-.349.31.31 0 01.299-.141.33.33 0 01.272.131c.068.09.104.2.101.313v.202h.604v-.238a1.093 1.093 0 00-.279-.737zM5.31 25.95a1.051 1.051 0 00-1.38 0 .961.961 0 00-.237.327 1.099 1.099 0 00-.089.452v2.239a1.08 1.08 0 00.089.459c.055.12.136.227.237.313a.94.94 0 00.322.197 1.028 1.028 0 00.728 0c.121-.044.233-.111.33-.197a.948.948 0 00.23-.313 1.08 1.08 0 00.089-.459v-2.239a1.08 1.08 0 00-.089-.452 1.015 1.015 0 00-.23-.327zm-.285 3.019a.405.405 0 01-.121.324.445.445 0 01-.574 0 .397.397 0 01-.121-.324V26.73a.405.405 0 01.121-.324.445.445 0 01.574 0 .397.397 0 01.121.324v2.239zM10.072 29.969V25.73h-.587l-.771 2.244h-.011l-.777-2.244h-.581v4.239h.606V27.39h.011l.593 1.823h.302l.598-1.823h.011v2.579h.606zM13.513 26.027a.844.844 0 00-.342-.232 1.363 1.363 0 00-.439-.066h-.9v4.239h.604v-1.656h.311c.188.009.376-.031.545-.116a.882.882 0 00.332-.324 1.02 1.02 0 00.139-.369c.024-.16.035-.321.033-.482a2.421 2.421 0 00-.059-.606.898.898 0 00-.223-.39zm-.312 1.292a.547.547 0 01-.056.221.346.346 0 01-.156.149.619.619 0 01-.285.053h-.276v-1.441h.311a.585.585 0 01.273.053.349.349 0 01.142.157.62.62 0 01.053.236v.282c0 .099.006.2 0 .291h-.006zM16.374 25.73h-.495l-.934 4.239h.604l.177-.911h.824l.177.911h.604l-.957-4.239zm-.557 2.751l.297-1.537h.011l.296 1.537h-.604zM20.277 28.284h-.011l-.912-2.554h-.581v4.239h.604V27.42h.012l.923 2.549h.568V25.73h-.604v2.554zM23.968 25.73l-.486 1.685h-.012l-.486-1.685h-.64l.83 2.447v1.792h.604v-1.792l.83-2.447h-.64zM0 31.166h.291v.817h.198v-.817h.29v-.167H.001v.167zM2.447 30.998l-.381.984h.21l.081-.224h.392l.084.224h.215l-.391-.984h-.21zm-.031.595l.134-.365.134.365h-.268zM4.866 31.62h.227v.127a.382.382 0 01-.234.083.244.244 0 01-.209-.093.411.411 0 01-.073-.257c0-.219.095-.329.283-.329a.206.206 0 01.222.157l.195-.038c-.042-.192-.181-.289-.417-.289a.495.495 0 00-.344.127.494.494 0 00-.141.379.532.532 0 00.126.369.477.477 0 00.374.144.59.59 0 00.417-.157v-.388h-.427v.166zM7.337 30.998h-.199v.984h.69v-.167h-.49v-.817zM9.426 30.998h-.199v.984h.199v-.984zM11.469 31.656l-.403-.657h-.193v.984h.185v-.643l.395.643h.198v-.984h-.182v.657zM13.315 31.549h.49v-.167h-.49v-.216h.528v-.167h-.727v.984h.747v-.167h-.548v-.266zM17.792 31.387h-.388v-.388h-.198v.984h.198v-.43h.388v.43h.198v-.984h-.198v.388zM19.649 31.549h.492v-.167h-.492v-.216h.529v-.167h-.727v.984h.746v-.167h-.548v-.266zM22.168 31.549c.171-.027.258-.117.258-.274a.236.236 0 00-.096-.219.553.553 0 00-.288-.058h-.417v.984h.198v-.412h.039a.261.261 0 01.123.022.21.21 0 01.07.072l.215.313h.237l-.12-.192a.685.685 0 00-.218-.236zm-.199-.136h-.146v-.247h.156a.526.526 0 01.201.023c.014.013.026.029.033.046a.133.133 0 01-.005.111.128.128 0 01-.037.043.547.547 0 01-.201.023zM24.067 31.549h.49v-.167h-.49v-.216h.529v-.167h-.729v.984h.747v-.167h-.548v-.266z"/></symbol><symbol id="icon-logo-3-2" viewBox="0 0 31 32"><path fill="var(--color1, #afb1b8)" d="M4.722 31.103a.088.088 0 01.059.025l.153.161c-.119.13-.266.234-.431.305a1.532 1.532 0 01-.611.109 1.496 1.496 0 01-.574-.102 1.25 1.25 0 01-.712-.733 1.618 1.618 0 01-.098-.571c-.003-.195.033-.39.105-.573.067-.166.168-.317.297-.445.131-.126.287-.224.459-.29.189-.07.389-.104.591-.102.188-.004.375.027.549.093.152.063.291.15.412.257l-.128.171a.122.122 0 01-.033.031.084.084 0 01-.052.013.123.123 0 01-.056-.018l-.069-.046-.096-.058a.978.978 0 00-.302-.103 1.238 1.238 0 00-.228-.018 1.12 1.12 0 00-.425.077.96.96 0 00-.333.215.997.997 0 00-.216.343c-.054.145-.08.298-.078.452-.002.156.024.312.078.46.047.126.119.242.212.341a.863.863 0 00.318.212c.125.049.259.074.394.073.078.001.156-.004.234-.015a.87.87 0 00.354-.122c.054-.034.104-.072.151-.113a.115.115 0 01.073-.029zM9.144 30.296c.002.194-.033.386-.103.567-.062.165-.161.315-.288.44s-.282.224-.452.289a1.711 1.711 0 01-1.164 0 1.281 1.281 0 01-.741-.735 1.61 1.61 0 010-1.136c.065-.166.164-.317.291-.447.128-.121.281-.216.45-.279.374-.139.79-.139 1.164 0 .17.066.324.165.452.29.126.127.224.276.289.44.071.183.106.376.103.571zm-.402 0a1.313 1.313 0 00-.073-.456.898.898 0 00-.528-.556 1.23 1.23 0 00-.846 0 .901.901 0 00-.531.556 1.465 1.465 0 000 .912.888.888 0 00.531.554c.273.097.573.097.846 0a.884.884 0 00.528-.554c.051-.147.076-.301.073-.456zM12.161 30.774l.04.102a3.46 3.46 0 01.044-.102.933.933 0 01.05-.1l.978-1.694c.019-.029.036-.047.056-.053a.217.217 0 01.08-.009h.289v2.755h-.343v-2.026-.086a.753.753 0 010-.095l-.984 1.718c-.012.026-.033.047-.058.063s-.054.023-.084.023h-.056a.154.154 0 01-.141-.086l-1.013-1.729V31.668h-.331v-2.75h.289a.24.24 0 01.08.009c.024.011.043.03.054.053l.999 1.696c.02.031.036.064.05.098zM15.842 30.638v1.032h-.383v-2.752h.854a1.67 1.67 0 01.477.06.912.912 0 01.337.171.699.699 0 01.191.27.905.905 0 01.065.352.84.84 0 01-.071.352.744.744 0 01-.207.275.936.936 0 01-.339.182 1.498 1.498 0 01-.461.064l-.463-.007zm0-.296h.463a.992.992 0 00.297-.042.617.617 0 00.214-.119.477.477 0 00.13-.182.579.579 0 00.046-.232.522.522 0 00-.172-.412.766.766 0 00-.515-.148h-.463v1.134zM20.987 31.673h-.302a.133.133 0 01-.084-.026.164.164 0 01-.05-.064l-.26-.666h-1.307l-.27.666a.145.145 0 01-.048.062.132.132 0 01-.086.027h-.302l1.148-2.756h.398l1.164 2.756zm-1.895-1.023h1.08l-.456-1.122a1.828 1.828 0 01-.086-.259l-.044.144c-.013.044-.029.084-.042.117l-.452 1.12zM22.641 28.931a.16.16 0 01.057.049l1.675 2.077v-.097V28.918h.343v2.756h-.191a.173.173 0 01-.078-.016.2.2 0 01-.061-.051l-1.673-2.075a.753.753 0 010 .095v2.048h-.343v-2.756h.203a.163.163 0 01.069.013zM27.537 30.577v1.094h-.383v-1.094l-1.059-1.66h.343a.126.126 0 01.082.024.256.256 0 01.052.062l.662 1.071a1.256 1.256 0 01.117.245l.05-.119c.019-.043.04-.085.065-.126l.653-1.078a.274.274 0 01.05-.058.116.116 0 01.082-.027h.346l-1.06 1.667zM11.971 24.293c.167.02.335.036.505.051 2.583-1.101 4.768-2.902 6.282-5.18s2.29-4.929 2.231-7.624l-2.846-2.712c.579 2.869.308 5.836-.782 8.567s-2.956 5.12-5.389 6.898z"/><path fill="var(--color1, #afb1b8)" d="M10.955 24.167l.077.015c2.6-1.772 4.583-4.247 5.691-7.104s1.292-5.965.526-8.922l-4.054-3.862c1.64 3.175 2.3 6.728 1.903 10.246s-1.833 6.857-4.143 9.628zM24.704 14.725c-.689 2.961-2.362 5.632-4.77 7.616a15.094 15.094 0 01-2.266 1.55c1.961-.549 3.764-1.52 5.269-2.838s2.672-2.947 3.412-4.763l-1.644-1.565z"/><path fill="var(--color1, #afb1b8)" d="M24.059 14.289l-2.341-2.23c-.045 2.543-.803 5.028-2.197 7.197s-3.372 3.943-5.729 5.137h.011a14 14 0 001.572-.089c2.203-.857 4.148-2.219 5.664-3.967s2.553-3.825 3.021-6.047zM11.294 2.664L8.501 0C6.004.919 3.857 2.535 2.34 4.636S.008 9.225 0 11.775c.009 2.818 1.005 5.552 2.829 7.77s4.372 3.793 7.242 4.476c2.561-2.973 4.061-6.647 4.281-10.488s-.851-7.648-3.058-10.869zM30.512 13.878c-.01-3.343-1.409-6.546-3.89-8.91s-5.843-3.696-9.352-3.706a13.655 13.655 0 00-4.741.841l17.099 16.291c.585-1.44.885-2.971.884-4.515z"/></symbol><symbol id="icon-facebook-1" viewBox="0 0 32 32"><path fill="var(--color1, #afb1b8)" d="M21.329 5.313h2.921V.225C23.746.156 22.013 0 19.994 0c-4.212 0-7.097 2.649-7.097 7.519V12H8.249v5.688h4.648V32h5.699V17.689h4.46l.708-5.688h-5.169V8.082c.001-1.644.444-2.769 2.735-2.769z"/></symbol><symbol id="icon-logo-1-2" viewBox="0 0 29 32"><path fill="var(--color1, #afb1b8)" d="M3.84 0l4.677 4.428h13.046v12.351l4.677 4.428V.001H3.84z"/><path fill="var(--color1, #afb1b8)" d="M0 4.241v20.6h21.76v-8.188L8.655 4.247 0 4.242zm17.615 17.587H3.443V7.974h1.002V20.89h13.17v.938zM6.266 28.662l.523-1.078h.438l-.763 1.438v.837h-.397v-.837l-.764-1.438h.439l.523 1.078zm2.247.667h-.881l-.184.53h-.411l.859-2.275h.355l.861 2.275H8.7l-.186-.53zm-.77-.319h.659l-.33-.944-.33.944zm2.328.234c0-.105.029-.202.086-.289.057-.089.17-.193.339-.314-.088-.111-.151-.206-.186-.284s-.052-.154-.052-.227c0-.178.054-.319.162-.422s.254-.156.438-.156a.57.57 0 01.406.147.47.47 0 01.159.361.5.5 0 01-.072.262.879.879 0 01-.236.238l-.155.113.439.519a.9.9 0 00.095-.417h.33c0 .28-.066.51-.197.689l.334.395h-.441l-.128-.152c-.162.122-.356.183-.581.183s-.405-.059-.541-.178a.599.599 0 01-.202-.467zm.753.343a.58.58 0 00.359-.128l-.497-.586-.048.034c-.125.095-.188.203-.188.325 0 .105.034.191.102.256s.158.098.272.098zm-.209-1.466c0 .087.054.197.161.33l.173-.119.048-.039a.28.28 0 00.097-.22.2.2 0 00-.067-.152.236.236 0 00-.17-.064c-.074 0-.133.025-.177.075s-.066.113-.066.189zm4.133.997a.827.827 0 01-.269.569c-.156.135-.364.203-.623.203a.902.902 0 01-.48-.128c-.137-.086-.244-.209-.319-.367s-.114-.342-.117-.552v-.212c0-.215.038-.404.114-.567a.86.86 0 01.821-.511c.251 0 .453.068.606.205s.242.329.267.578h-.394c-.019-.164-.067-.281-.144-.353-.076-.073-.188-.109-.336-.109a.464.464 0 00-.397.189c-.092.125-.139.309-.141.552v.202c0 .246.044.433.131.563s.218.194.387.194c.155 0 .272-.035.35-.105s.128-.186.148-.348h.394zm2.17-.338c0 .223-.039.419-.116.588a.884.884 0 01-.331.388.905.905 0 01-.494.134.926.926 0 01-.494-.134.896.896 0 01-.334-.386 1.362 1.362 0 01-.119-.576v-.128c0-.222.039-.418.117-.588a.887.887 0 01.333-.389c.144-.091.308-.136.494-.136s.349.045.492.134c.144.088.255.217.333.384s.118.361.119.583v.127zm-.395-.118c0-.252-.048-.445-.144-.58a.468.468 0 00-.405-.202.467.467 0 00-.402.202c-.096.133-.145.322-.147.567v.131c0 .25.048.443.145.58s.233.205.406.205a.464.464 0 00.403-.2c.095-.133.142-.328.142-.584v-.119z"/></symbol><symbol id="icon-instagram-2" viewBox="0 0 32 32"><path fill="var(--color1, #afb1b8)" d="M31.969 9.408c-.075-1.7-.35-2.869-.744-3.882a7.803 7.803 0 00-1.85-2.838A7.867 7.867 0 0026.543.844C25.524.45 24.361.175 22.661.1 20.948.019 20.404 0 16.06 0s-4.888.019-6.595.094c-1.7.075-2.869.35-3.882.744a7.803 7.803 0 00-2.838 1.85A7.867 7.867 0 00.901 5.52C.507 6.539.232 7.702.157 9.402c-.081 1.713-.1 2.257-.1 6.601s.019 4.888.094 6.595c.075 1.7.35 2.869.744 3.882a7.895 7.895 0 001.85 2.838 7.867 7.867 0 002.832 1.844c1.019.394 2.182.669 3.882.744 1.706.075 2.25.094 6.595.094s4.888-.019 6.595-.094c1.7-.075 2.869-.35 3.882-.744a8.184 8.184 0 004.682-4.682c.394-1.019.669-2.182.744-3.882.075-1.707.094-2.251.094-6.595s-.006-4.888-.081-6.595zm-2.882 13.065c-.069 1.563-.331 2.407-.55 2.969a5.31 5.31 0 01-3.038 3.038c-.563.219-1.413.481-2.969.55-1.688.075-2.194.094-6.464.094s-4.782-.019-6.464-.094c-1.563-.069-2.407-.331-2.969-.55a4.926 4.926 0 01-1.838-1.194 4.974 4.974 0 01-1.194-1.838c-.219-.563-.481-1.413-.55-2.969-.075-1.688-.094-2.194-.094-6.464s.019-4.782.094-6.464c.069-1.563.331-2.407.55-2.969a4.868 4.868 0 011.2-1.838A4.974 4.974 0 016.639 3.55c.563-.219 1.413-.481 2.969-.55 1.688-.075 2.194-.094 6.464-.094 4.276 0 4.782.019 6.464.094 1.563.069 2.407.331 2.969.55a4.914 4.914 0 011.838 1.194 4.974 4.974 0 011.194 1.838c.219.563.481 1.413.55 2.969.075 1.688.094 2.194.094 6.464s-.019 4.77-.094 6.458z"/><path fill="var(--color1, #afb1b8)" d="M16.059 7.783c-4.538 0-8.22 3.682-8.22 8.22s3.682 8.22 8.22 8.22 8.22-3.682 8.22-8.22-3.682-8.22-8.22-8.22zm0 13.552a5.333 5.333 0 010-10.664 5.333 5.333 0 010 10.664zM26.524 7.458a1.919 1.919 0 11-3.838 0 1.919 1.919 0 013.838 0z"/></symbol><symbol id="icon-logo-4-2" viewBox="0 0 60 32"><path fill="var(--color3, #2196f3)" d="M9.229 9.548h-.002c-1.684 0-3.048 1.33-3.048 2.971v.002c0 1.641 1.365 2.971 3.048 2.971h.002c1.684 0 3.048-1.33 3.048-2.971v-.002c0-1.641-1.365-2.971-3.048-2.971zM31.73 8.599c-.005-2.279-.936-4.463-2.589-6.074S25.247.006 22.908.001c-2.339.004-4.581.911-6.235 2.523S14.087 6.32 14.083 8.6v12.566S31.728 19.251 31.73 8.602V8.6zM0 25.289c.004 1.586.652 3.105 1.803 4.226s2.709 1.753 4.336 1.758c1.627-.005 3.185-.636 4.336-1.757s1.799-2.64 1.803-4.225v-8.744S0 17.881 0 25.289zm6.139 1.567c-.318 0-.629-.092-.893-.264s-.47-.417-.592-.703-.154-.601-.091-.905c.062-.304.215-.583.44-.802s.511-.368.823-.429c.312-.06.635-.029.929.089s.545.319.721.577a1.537 1.537 0 01.15 1.471 1.585 1.585 0 01-.87.851c-.195.079-.405.12-.617.12v-.006zM18.671 25.884h-1.256v1.297h-.654v-3.174h2.067v.53h-1.413v.82h1.256v.528zm3.144-.218c0 .312-.055.587-.166.822s-.269.417-.475.545c-.205.128-.44.192-.706.192-.263 0-.498-.063-.704-.19s-.366-.307-.48-.541a1.867 1.867 0 01-.172-.811v-.157c0-.312.056-.587.168-.824a1.26 1.26 0 01.477-.547c.206-.128.442-.192.706-.192s.499.064.704.192c.206.126.366.309.477.547.113.237.17.511.17.822v.142zm-.663-.144c0-.333-.06-.586-.179-.759s-.289-.259-.51-.259a.583.583 0 00-.508.257c-.119.17-.18.42-.181.75v.155c0 .324.06.576.179.754s.291.268.515.268c.22 0 .388-.086.506-.257.118-.173.177-.424.179-.754v-.155zm2.784.826a.331.331 0 00-.131-.283c-.087-.067-.244-.137-.471-.209a3.432 3.432 0 01-.539-.218c-.36-.195-.541-.457-.541-.787 0-.172.048-.324.144-.458a.945.945 0 01.416-.316c.182-.076.385-.113.61-.113.227 0 .429.041.606.124a.946.946 0 01.412.347c.099.15.148.32.148.51h-.654a.427.427 0 00-.137-.338c-.092-.081-.22-.122-.386-.122a.602.602 0 00-.373.102.317.317 0 00-.133.266c0 .103.052.19.155.259.105.07.258.135.46.196.372.112.643.251.813.416s.255.372.255.619a.767.767 0 01-.312.648c-.208.156-.488.233-.839.233-.244 0-.467-.044-.667-.133a1.07 1.07 0 01-.46-.368.945.945 0 01-.157-.541h.656c0 .35.209.525.628.525a.61.61 0 00.364-.094.313.313 0 00.131-.266zm3.491-1.812h-.972v2.645h-.654v-2.645h-.959v-.53h2.586v.53zm2.285 1.269h-1.256v.85h1.474v.525h-2.128v-3.174h2.124v.53h-1.469v.757h1.256v.512zm1.777.214h-.521v1.162h-.654v-3.174h1.18c.375 0 .664.084.868.251s.305.403.305.709a.973.973 0 01-.142.543.95.95 0 01-.425.344l.687 1.297v.03h-.702l-.595-1.162zm-.522-.53h.528c.164 0 .291-.041.382-.124.09-.084.135-.2.135-.347a.476.476 0 00-.129-.353c-.084-.086-.214-.129-.39-.129h-.525v.953zm3.964.574v1.118h-.654v-3.174h1.238c.238 0 .448.044.628.131a.964.964 0 01.419.373c.097.16.146.342.146.547 0 .311-.107.557-.321.737-.212.179-.507.268-.883.268h-.573zm0-.53h.584c.173 0 .305-.041.395-.122.092-.081.137-.198.137-.349 0-.156-.046-.281-.137-.377s-.218-.145-.379-.148h-.6v.996zm4.138.272h-1.256v.85h1.474v.525h-2.128v-3.174h2.124v.53h-1.469v.757h1.256v.512zm3.035-1.269h-.972v2.645h-.654v-2.645h-.959v-.53h2.586v.53zm2.285 1.269h-1.256v.85h1.474v.525h-2.128v-3.174h2.124v.53h-1.469v.757h1.256v.512zm1.777.214h-.521v1.162h-.654v-3.174h1.179c.375 0 .664.084.868.251s.305.403.305.709a.973.973 0 01-.142.543.95.95 0 01-.425.344l.687 1.297v.03h-.702l-.595-1.162zm-.521-.53h.528c.164 0 .291-.041.382-.124.09-.084.135-.2.135-.347a.476.476 0 00-.129-.353c-.084-.086-.214-.129-.39-.129h-.525v.953zm3.844.859a.331.331 0 00-.131-.283c-.087-.067-.244-.137-.471-.209a3.375 3.375 0 01-.538-.218c-.36-.195-.541-.457-.541-.787 0-.172.048-.324.144-.458a.945.945 0 01.416-.316c.182-.076.385-.113.61-.113.227 0 .429.041.606.124a.946.946 0 01.412.347c.099.15.148.32.148.51h-.654a.427.427 0 00-.137-.338c-.092-.081-.22-.122-.386-.122a.602.602 0 00-.373.102.317.317 0 00-.133.266c0 .103.052.19.155.259.105.07.258.135.46.196.372.112.643.251.813.416s.255.372.255.619a.767.767 0 01-.312.648c-.208.156-.488.233-.839.233-.244 0-.467-.044-.667-.133a1.07 1.07 0 01-.46-.368.945.945 0 01-.157-.541h.656c0 .35.209.525.628.525a.61.61 0 00.364-.094.313.313 0 00.131-.266z"/></symbol><symbol id="icon-Group1" viewBox="0 0 72 32"><path fill="var(--color4, #f5f4fa)" d="M1.067 0h69.867c.589 0 1.067.478 1.067 1.067v29.867c0 .589-.478 1.067-1.067 1.067H1.067A1.067 1.067 0 010 30.934V1.067C0 .478.478 0 1.067 0z"/><path fill="var(--color5, #212121)" d="M44.618 19.557l-4.925-4.961.547-2.693c.131.053.283.084.442.085h.019a1.259 1.259 0 10-1.183-.828l-.003-.009-2.893.353-4.719-4.744a.308.308 0 00-.22-.093.312.312 0 00-.218.091l-.882.877a.31.31 0 000 .44l.475.481a8.716 8.716 0 001.47 10.303.302.302 0 00.085.057 1.67 1.67 0 00-.03.319v3.61H28.85a1.558 1.558 0 00-1.556 1.555v.622a.31.31 0 00.311.311h14.311a.31.31 0 00.311-.311V24.4a1.557 1.557 0 00-1.555-1.555h-3.733v-1.599a8.632 8.632 0 005.93-.876l-.045.023.477.48a.309.309 0 00.438.002l.882-.877a.31.31 0 000-.44zm-4.371-9.254a.62.62 0 011.06.442.621.621 0 01-.621.622h-.002a.623.623 0 01-.436-1.063h-.001zm-.733 2.044l-.349 1.718-.686-.69 1.035-1.029zm-.353-.526l-1.12 1.114-.866-.871 1.986-.242zm1.508 11.646c.515 0 .933.418.933.933v.311H27.913V24.4c0-.515.418-.933.933-.933h11.822zm-4.355-1.245v.622h-3.111v-.622h3.111zm-3.112-.622v-2.365c0-.755.698-1.369 1.555-1.369s1.556.614 1.556 1.369V21.6h-3.111zm3.734-.989v-1.375c0-1.098-.977-1.991-2.178-1.991h-.034c-.789 0-1.482.412-1.875 1.033l-.005.009a8.062 8.062 0 01-2.223-5.57c0-1.35.331-2.623.915-3.742l-.021.045 10.851 10.913a7.955 7.955 0 01-3.655.876 8.1 8.1 0 01-1.829-.208l.054.011zm6.585-.399L31.238 7.857l.44-.439 4.629 4.655c.002 0 .003.004.006.006l7.65 7.695-.441.439z"/><path fill="var(--color3, #2196f3)" d="M34.761 18.489h-.003-.001a.933.933 0 00-.001 1.866h.004a.933.933 0 00.001-1.866zm.217 1.154a.31.31 0 11-.438-.442.312.312 0 01.218-.091.312.312 0 01.218.532h.003z"/></symbol><symbol id="icon-Group2" viewBox="0 0 72 32"><path fill="var(--color4, #f5f4fa)" d="M1.067 0h69.867c.589 0 1.067.478 1.067 1.067v29.867c0 .589-.478 1.067-1.067 1.067H1.067A1.067 1.067 0 010 30.934V1.067C0 .478.478 0 1.067 0z"/><path fill="var(--color5, #212121)" d="M44.923 15.592c-.001-4.931-3.999-8.927-8.93-8.926s-8.927 3.999-8.926 8.93a8.932 8.932 0 006.149 8.485l.063.018a.394.394 0 00.309-.038.37.37 0 00.165-.208l2.255-7.146a1.115 1.115 0 001.11-1.115v-.006a1.115 1.115 0 00-1.116-1.11h-.006a1.096 1.096 0 00-.485.115l.006-.003-2.978-2.979a.373.373 0 00-.63.268c0 .1.04.191.104.258l2.977 2.98a1.094 1.094 0 00.31 1.345l.002.002-2.148 6.809a8.192 8.192 0 1110.519-4.856 8.243 8.243 0 01-4.301 4.631l-.051.021-.232-1.093a.373.373 0 00-.612-.2l-2.238 1.998a.37.37 0 00.132.632l.003.001 2.858.912a.373.373 0 00.486-.354.344.344 0 00-.009-.08v.002l-.228-1.073c3.224-1.385 5.442-4.533 5.442-8.2v-.02.001zm-8.928-.371a.373.373 0 010 .744.373.373 0 010-.744zm1.226 8.67l1.274-1.137.352 1.657-1.626-.52z"/><path fill="var(--color3, #2196f3)" d="M35.623 8.525v.744a.373.373 0 00.744 0v-.744a.373.373 0 00-.744 0zm-6.695 6.696a.373.373 0 000 .744h.744a.373.373 0 000-.744h-.744zm14.135.744a.373.373 0 000-.744h-.744a.373.373 0 000 .744h.744z"/></symbol><symbol id="icon-Group3" viewBox="0 0 72 32"><path fill="var(--color4, #f5f4fa)" d="M1.067 0h69.867c.589 0 1.067.478 1.067 1.067v29.867c0 .589-.478 1.067-1.067 1.067H1.067A1.067 1.067 0 010 30.934V1.067C0 .478.478 0 1.067 0z"/><path fill="var(--color3, #2196f3)" d="M35.373 15.396h.622v2.799h-.622v-2.799zm2.488 1.244h.622v1.555h-.622V16.64zm-4.975.933h.622v.622h-.622v-.622zm-1.866-.311h.622v.933h-.622v-.933z"/><path fill="var(--color5, #212121)" d="M27.599 23.17h14.926a.933.933 0 00.933-.933v-1.244a.933.933 0 00-.933-.933h-.311v-7.755l1.766-1.673a.938.938 0 10-.433-.439l-.002-.006-1.331 1.262v-.717a.933.933 0 00-.933-.933H28.843a.933.933 0 00-.933.933v9.329h-.311a.933.933 0 00-.933.933v1.244c0 .515.418.933.933.933zM44.391 9.488a.31.31 0 110 .622.31.31 0 110-.622zm-15.859 1.244a.31.31 0 01.311-.311h12.438a.31.31 0 01.311.311v1.306l-.622.591v-1.275a.31.31 0 00-.311-.311H29.465a.31.31 0 00-.311.311v7.774a.31.31 0 00.311.311h11.194a.311.311 0 00.311-.311v-5.643l.622-.589v7.165h-13.06v-9.328zm2.799 4.042h-.003a.933.933 0 10.649 1.603l1.081.542a.31.31 0 00.371-.071l2.298-2.585 2.259 1.693a.31.31 0 00.4-.023l1.963-1.859v4.743H29.777v-7.152h10.572v1.552l-2.2 2.083-2.278-1.707a.31.31 0 00-.419.042l-2.329 2.621-.871-.435a.899.899 0 00.012-.111v-.002a.933.933 0 00-.933-.933zm.311.933a.31.31 0 11-.622 0 .31.31 0 11.622 0zm1.865 4.975h3.11v.311a.31.31 0 01-.311.311h-2.488a.31.31 0 01-.311-.311v-.311zm-6.218.311a.31.31 0 01.311-.311h5.286v.311c0 .515.418.933.933.933h2.488a.933.933 0 00.933-.933v-.311h5.286a.31.31 0 01.311.311v1.244a.31.31 0 01-.311.311H27.6a.31.31 0 01-.311-.311v-1.244z"/></symbol><symbol id="icon-Group4" viewBox="0 0 72 32"><path fill="var(--color4, #f5f4fa)" d="M1.067 0h69.867c.589 0 1.067.478 1.067 1.067v29.867c0 .589-.478 1.067-1.067 1.067H1.067A1.067 1.067 0 010 30.934V1.067C0 .478.478 0 1.067 0z"/><path fill="var(--color3, #2196f3)" d="M45.318 9.306a.312.312 0 00-.249-.211h-.002l-1.114-.162-.499-1.01c-.105-.213-.453-.213-.558 0l-.499 1.01-1.115.162a.31.31 0 00-.173.531l.807.786-.19 1.11a.311.311 0 00.451.328l.997-.525.997.524a.314.314 0 00.329-.024l-.001.001a.307.307 0 00.123-.304l-.19-1.11.807-.786a.312.312 0 00.078-.321l.001.002zm-1.436.774a.309.309 0 00-.089.278v-.002l.111.65-.583-.307a.305.305 0 00-.292.001l.002-.001-.583.307.111-.65a.308.308 0 00-.089-.275l-.473-.461.653-.095a.31.31 0 00.234-.17l.292-.591.292.591a.31.31 0 00.234.17l.653.095-.472.461zm-1.971 8.558h-.622v.622h.622v-.622zm0 1.245h-.622v.622h.622v-.622zm.622-.623h-.622v.622h.622v-.622zm-1.244 0h-.622v.622h.622v-.622zm-1.556 2.8h-.622v.622h.622v-.622zm0 1.245h-.622v.622h.622v-.622zm.623-.622h-.622v.622h.622v-.622zm-1.245 0h-.622v.622h.622v-.622zM36 20.816h-.622v.622H36v-.622zm0 1.244h-.622v.622H36v-.622zm.622-.622H36v.622h.622v-.622zm-1.244 0h-.622v.622h.622v-.622zm-5.289-11.2h-.622v.622h.622v-.622zm0 1.244h-.622v.622h.622v-.622zm.622-.622h-.622v.622h.622v-.622zm-1.244 0h-.622v.622h.622v-.622z"/><path fill="var(--color5, #212121)" d="M41.084 14.926a1.033 1.033 0 00-.688-.41l-.005-.001a1.03 1.03 0 00-.784.207l.002-.002-.73.56-1.107.827-.792-.316a4.046 4.046 0 002.4-3.687c0-2.23-1.822-4.045-4.061-4.045s-4.061 1.814-4.061 4.045c0 .808.242 1.56.653 2.193l-1.615-.014c-.005 0-.009.003-.014.003a.314.314 0 00-.093.019l.002-.001c-.007.003-.015.004-.022.008a.049.049 0 00-.011.004l-1.886.931-.001.001-1.104.531a.232.232 0 00-.038.021l.001-.001a1.04 1.04 0 00-.347 1.345l-.003-.006c.128.247.346.433.609.516l.007.002a1.035 1.035 0 00.809-.078l-.005.003.81-.43 1.321-.682.791-.005-3.956 3.937a.96.96 0 00-.286.685v.004a.97.97 0 00.972.969h.002c.25 0 .498-.094.689-.283l.767-.763 1.015-.758.525.523-1.809 1.802a.958.958 0 00-.286.685v.003a.973.973 0 00.973.971h.001a.974.974 0 00.689-.283l2.618-2.609c.004-.004.009-.005.013-.009l3.013-3.301 2.025.288a.312.312 0 00.153-.019l.029-.014c.011-.006.023-.009.034-.016l1.874-1.244c.007-.005.011-.012.017-.017.007-.006.017-.008.024-.015l.742-.695a1.034 1.034 0 00.122-1.38l.002.003zm-13.175 2.107a.404.404 0 01-.329.029l.003.001a.418.418 0 01-.125-.734l.001-.001.766-.369.185.539.077.227-.579.307zm2.04-1.067l-.903.467-.149-.435-.107-.313 1.182-.584-.023.866zm8.808-3.861c0 .536-.128 1.041-.349 1.493l-2.439-1.108a1.086 1.086 0 00-.456-.807l-.003-.002.854-2.835a3.429 3.429 0 012.394 3.26zm-6.876 0a3.434 3.434 0 013.438-3.422c.147 0 .292.013.435.031l-.835 2.773-.033-.003c-.602 0-1.093.488-1.093 1.089s.49 1.089 1.093 1.089c.405 0 .755-.223.944-.551l2.253 1.024a3.439 3.439 0 01-6.201-2.028zm3.474.466a.47.47 0 01-.47.467h-.001a.47.47 0 01-.469-.467.47.47 0 01.94 0zm-7.25 8.764a.355.355 0 01-.498.001.344.344 0 010-.492l.561-.559.497.494-.559.557zm1.874 2.178a.355.355 0 01-.498.001.344.344 0 010-.492l.562-.559.497.494-.56.557zm2.031-2.023l-.001.001-1.03 1.027-.497-.494 1.03-1.025a.292.292 0 00.052-.079c.004-.008.012-.015.015-.023.01-.024.011-.05.015-.075.002-.014.008-.028.008-.043 0-.021-.007-.041-.012-.061-.004-.019-.004-.038-.011-.056a.324.324 0 00-.053-.081c-.006-.007-.008-.015-.015-.022h-.001l-.001-.001-.937-.933c-.01-.01-.023-.014-.034-.023a.35.35 0 00-.049-.033l-.002-.001a.253.253 0 00-.053-.018h-.002a.257.257 0 00-.059-.012H30.359a.325.325 0 00-.044.003h.002c-.021.003-.041.005-.061.012s-.037.016-.055.026c-.012.006-.025.009-.035.017l-1.035.772-.525-.523 1.399-1.392 2.543 2.502-.541.536zm3.978-4.093c-.009-.001-.017.002-.026.002h-.016a.305.305 0 00-.105.018l.002-.001a.275.275 0 00-.057.028l.001-.001a.343.343 0 00-.049.036c-.007.006-.017.01-.023.017l-2.741 3.002-2.525-2.483 1.653-1.644a.31.31 0 00-.22-.531h-.002l-1.294.007.016-.938 1.811.015a4.044 4.044 0 002.904 1.226h.002c.255 0 .504-.027.746-.071a.294.294 0 00.075.049l1.406.56.089.442.104.517-1.752-.249zm2.357.104l-.182-.909.844-.63.221.293.331.44-1.214.806zm2.19-1.652l-.489.458-.543-.721.485-.372a.425.425 0 01.597.083.415.415 0 01-.05.552z"/><path fill="var(--color5, #212121)" d="M34.601 17.484l-1.25-1.245a.31.31 0 00-.438 0l-1.25 1.245a.315.315 0 000 .442l1.25 1.245a.31.31 0 00.438 0l1.25-1.245a.31.31 0 000-.442zm-1.469 1.026l-.809-.805.809-.806.809.805-.809.805zm3.547-8.885l-.15.604c.041.01 1.014.263 1.014 1.253h.622c0-1.177-.972-1.73-1.486-1.858zm1.486 2.48h-.622v.622h.622v-.622z"/></symbol><symbol id="icon-Vector" viewBox="0 0 20 32"><path fill="var(--color2, #757575)" d="M17 0H3C1.346 0 0 1.346 0 3v26c0 1.654 1.346 3 3 3h14c1.654 0 3-1.346 3-3V3c0-1.654-1.346-3-3-3zM3 2h14a1 1 0 011 1v21H2V3a1 1 0 011-1zm14 28H3a1 1 0 01-1-1v-3h16v3a1 1 0 01-1 1z"/></symbol><symbol id="icon-Webstudiowhite" viewBox="0 0 232 32"><path fill="var(--color3, #2196f3)" d="M13.27.947h5.283l3.328 9.776L25.209.947h5.325L25.5 14.384l3.744 9.443L37.606.864h6.24L31.824 30.4h-4.826l-5.117-12.397L16.764 30.4h-4.826L-.001.864h6.157l8.403 22.963 3.661-9.443L13.27.947zm41.736 29.869c-1.747 0-3.328-.291-4.742-.874a11.194 11.194 0 01-3.618-2.453l-.001-.001a11.103 11.103 0 01-2.303-3.504l-.027-.074a11.548 11.548 0 01-.791-4.237v-.051.003c0-1.552.264-3.008.79-4.368a10.501 10.501 0 012.291-3.622l-.002.003a10.85 10.85 0 013.549-2.469l.07-.027c1.443-.61 3.051-.915 4.826-.915 1.776 0 3.357.304 4.742.915 1.414.61 2.608 1.429 3.578 2.454a10.038 10.038 0 012.224 3.508l.023.069c.528 1.36.79 2.773.79 4.243 0 .36-.013.707-.042 1.04 0 .333-.027.61-.083.832H49.432c.083.859.291 1.622.624 2.288a5.65 5.65 0 003.04 2.774l.039.013c.666.25 1.36.374 2.08.374 1.11 0 2.15-.264 3.12-.79.998-.555 1.678-1.275 2.038-2.163l4.784 1.331c-.803 1.664-2.093 3.037-3.869 4.118-1.747 1.054-3.84 1.581-6.282 1.581zm5.658-13.146c-.138-1.637-.749-2.939-1.83-3.91-1.053-.998-2.342-1.498-3.869-1.498a5.47 5.47 0 00-2.122.416 5.278 5.278 0 00-1.708 1.084l.002-.002a6.037 6.037 0 00-1.248 1.706 6.319 6.319 0 00-.541 2.205h11.315zm22.782 13.146c-1.664 0-3.149-.374-4.451-1.123a8.262 8.262 0 01-3.057-3.039l-.021-.04V30.4H71.05V.032h5.574v12.397c.776-1.331 1.789-2.357 3.037-3.078 1.275-.749 2.758-1.123 4.451-1.123 1.414 0 2.704.304 3.869.915a9.551 9.551 0 012.981 2.437l.014.018a10.545 10.545 0 011.935 3.544l.021.075c.47 1.387.707 2.843.707 4.368 0 1.581-.264 3.051-.79 4.41a11.071 11.071 0 01-2.131 3.589l.01-.011a10.273 10.273 0 01-3.183 2.345l-.062.026a9.278 9.278 0 01-3.963.874h-.076.004zm-1.539-4.742c.886 0 1.706-.166 2.454-.499.749-.36 1.386-.832 1.914-1.414s.928-1.262 1.206-2.038c.304-.776.458-1.608.458-2.496s-.139-1.733-.416-2.538a6.42 6.42 0 00-1.213-2.13l.007.008a5.708 5.708 0 00-1.758-1.441l-.031-.015a4.82 4.82 0 00-2.235-.541h-.056.003c-1.248 0-2.371.416-3.37 1.248a8.095 8.095 0 00-2.226 2.944l-.02.051v5.2c.194.555.47 1.054.832 1.498.387.443.818.832 1.29 1.165a7.2 7.2 0 001.539.749 5.506 5.506 0 001.62.25h.002z"/><path fill="var(--color6, #fff)" d="M116.8 8.602c-.194-.194-.554-.458-1.082-.79a10.335 10.335 0 00-1.8-.931l-.072-.025a13.303 13.303 0 00-2.274-.811l-.097-.021a10.216 10.216 0 00-2.616-.333h-.005c-1.581 0-2.758.291-3.536.874-.776.582-1.165 1.4-1.165 2.454 0 .61.139 1.123.416 1.539.304.389.736.736 1.29 1.04.555.304 1.248.582 2.08.832.861.25 1.845.512 2.954.79 1.616.428 2.918.854 4.19 1.342l-.28-.094c1.194.443 2.192.998 2.995 1.664a6.73 6.73 0 011.914 2.413c.445.915.666 2.053.666 3.411 0 1.581-.304 2.939-.915 4.077a7.379 7.379 0 01-2.387 2.688l-.025.016c-.998.693-2.163 1.206-3.494 1.539a18.064 18.064 0 01-4.118.458c-2.218 0-4.41-.333-6.573-.998a20.3 20.3 0 01-5.887-2.871l.063.042 2.538-4.95c.25.25.694.582 1.331.998.666.389 1.443.79 2.33 1.206.888.389 1.872.72 2.954.998a13.37 13.37 0 003.328.416c3.162 0 4.742-1.013 4.742-3.037 0-.638-.179-1.179-.541-1.622-.36-.443-.874-.832-1.539-1.165a14.003 14.003 0 00-2.309-.889l-.104-.026c-.944-.277-1.997-.582-3.162-.915a29.816 29.816 0 01-3.902-1.322l.199.074c-1.026-.472-1.885-1.013-2.579-1.622a6.628 6.628 0 01-1.564-2.122l-.017-.041c-.333-.832-.499-1.816-.499-2.954 0-1.498.278-2.829.832-3.994a8.238 8.238 0 012.272-2.9l.016-.012c.98-.76 2.131-1.358 3.379-1.728l.074-.019a13.457 13.457 0 014.096-.624h.112-.006c2.08 0 3.994.333 5.741.998 1.747.638 3.274 1.4 4.576 2.288l-2.538 4.659zm21.442 20.675c-.749.333-1.664.666-2.746.998-1.004.317-2.16.499-3.357.499h-.057.003-.046a8.14 8.14 0 01-2.216-.305l.057.014a5.232 5.232 0 01-1.8-.923l.011.008a4.973 4.973 0 01-1.194-1.633l-.013-.031c-.304-.693-.458-1.525-.458-2.496V12.886h-2.87V8.601h2.87V1.529H132v7.072h4.576v4.285H132v10.65c0 .776.195 1.331.582 1.664.416.304.915.458 1.498.458s1.152-.096 1.706-.291c.555-.194.998-.36 1.331-.499l1.123 4.41zm10.808 1.539c-2.246 0-3.952-.72-5.117-2.163-1.165-1.442-1.747-3.578-1.747-6.406V8.602h5.574V21.04c0 3.355 1.206 5.034 3.619 5.034 1.082 0 2.122-.32 3.12-.957 1.026-.666 1.858-1.664 2.496-2.995V8.602h5.574v15.392c0 .582.096.998.291 1.248.221.25.568.389 1.04.416V30.4c-.722.159-1.551.25-2.402.25h-.012.001c-.998 0-1.818-.222-2.454-.666-.611-.472-.971-1.109-1.082-1.914l-.125-1.747c-.971 1.498-2.219 2.621-3.744 3.37-1.526.749-3.203 1.123-5.034 1.123zm29.334 0h-.094a9.87 9.87 0 01-4.128-.899l.062.025a9.882 9.882 0 01-3.278-2.403l-.008-.009a11.628 11.628 0 01-2.136-3.498l-.027-.079a12.783 12.783 0 01-.749-4.357v-.1.005c0-1.581.235-3.051.707-4.41.5-1.374 1.191-2.56 2.054-3.597l-.016.019a9.37 9.37 0 013.024-2.389l.054-.024a8.67 8.67 0 013.915-.873h-.005c1.608 0 3.051.389 4.326 1.165a8.451 8.451 0 013.015 2.998l.021.039V.032h5.574v23.962c0 .582.098.998.291 1.248s.526.389.998.416V30.4c-.971.194-1.762.291-2.371.291-.998 0-1.816-.25-2.454-.749a2.748 2.748 0 01-1.081-1.945l-.001-.011-.125-1.373a8.075 8.075 0 01-3.243 3.141l-.044.021a9.185 9.185 0 01-4.274 1.04h-.011.001zm1.456-4.742c.526 0 1.067-.083 1.622-.25a6.246 6.246 0 002.778-1.944l.009-.011c.389-.443.68-.928.874-1.456v-5.2a5.547 5.547 0 00-.964-1.673l.007.009a5.76 5.76 0 00-1.354-1.319l-.019-.012a6.229 6.229 0 00-1.58-.901l-.043-.015a4.39 4.39 0 00-1.663-.333h-.001c-.832 0-1.608.181-2.33.541a5.508 5.508 0 00-1.78 1.485l-.009.012a6.773 6.773 0 00-1.15 2.074l-.014.048a7.46 7.46 0 00-.416 2.483v.014-.001c0 .915.152 1.76.458 2.538.306.776.722 1.456 1.248 2.038s1.15 1.04 1.872 1.373a5.969 5.969 0 002.454.499zm17.578 4.326V8.602h5.574V30.4h-5.574zm0-24.835V.032h5.574v5.533h-5.574zm21.918 25.251c-1.776 0-3.37-.304-4.784-.915a11.194 11.194 0 01-3.618-2.453l-.001-.001a11.32 11.32 0 01-2.22-3.542l-.027-.077c-.5-1.255-.791-2.71-.791-4.232v-.055V19.472c0-1.53.29-2.992.818-4.334l-.028.08a10.898 10.898 0 012.251-3.583l-.005.005a10.85 10.85 0 013.549-2.469l.07-.027c1.414-.61 3.008-.915 4.784-.915 1.774 0 3.355.304 4.742.915a10.44 10.44 0 013.572 2.49l.006.006c.97.996 1.746 2.186 2.263 3.506l.025.072c.526 1.36.79 2.8.79 4.326v.046c0 1.525-.29 2.982-.818 4.319l.028-.08a11.435 11.435 0 01-2.254 3.627l.007-.008c-.971 1.026-2.163 1.845-3.578 2.454s-3.01.915-4.784.915zm-5.699-11.274c0 .971.138 1.858.416 2.662a7.058 7.058 0 001.206 2.038 5.872 5.872 0 001.83 1.373 5.531 5.531 0 002.246.458c.803 0 1.552-.152 2.246-.458a5.45 5.45 0 001.783-1.366l.006-.007a5.962 5.962 0 001.206-2.08c.304-.805.458-1.691.458-2.662 0-.944-.154-1.816-.458-2.621a5.992 5.992 0 00-1.211-2.086l.005.006a5.002 5.002 0 00-1.757-1.319l-.031-.013a5.057 5.057 0 00-2.208-.499h-.041.002-.041c-.802 0-1.56.184-2.236.513l.03-.013a5.906 5.906 0 00-1.826 1.367l-.005.005a6.903 6.903 0 00-1.191 2.032l-.016.048a7.802 7.802 0 00-.416 2.541v.084-.004z"/></symbol><symbol id="icon-Webstudio" viewBox="0 0 232 32"><path fill="var(--color3, #2196f3)" d="M13.27.947h5.283l3.328 9.776L25.209.947h5.325L25.5 14.384l3.744 9.443L37.606.864h6.24L31.824 30.4h-4.826l-5.117-12.397L16.764 30.4h-4.826L-.001.864h6.157l8.403 22.963 3.661-9.443L13.27.947zm41.736 29.869c-1.747 0-3.328-.291-4.742-.874a11.194 11.194 0 01-3.618-2.453l-.001-.001a11.103 11.103 0 01-2.303-3.504l-.027-.074a11.548 11.548 0 01-.791-4.237v-.051.003c0-1.552.264-3.008.79-4.368a10.501 10.501 0 012.291-3.622l-.002.003a10.85 10.85 0 013.549-2.469l.07-.027c1.443-.61 3.051-.915 4.826-.915 1.776 0 3.357.304 4.742.915 1.414.61 2.608 1.429 3.578 2.454a10.038 10.038 0 012.224 3.508l.023.069c.528 1.36.79 2.773.79 4.243 0 .36-.013.707-.042 1.04 0 .333-.027.61-.083.832H49.432c.083.859.291 1.622.624 2.288a5.65 5.65 0 003.04 2.774l.039.013c.666.25 1.36.374 2.08.374 1.11 0 2.15-.264 3.12-.79.998-.555 1.678-1.275 2.038-2.163l4.784 1.331c-.803 1.664-2.093 3.037-3.869 4.118-1.747 1.054-3.84 1.581-6.282 1.581zm5.658-13.146c-.138-1.637-.749-2.939-1.83-3.91-1.053-.998-2.342-1.498-3.869-1.498a5.47 5.47 0 00-2.122.416 5.278 5.278 0 00-1.708 1.084l.002-.002a6.037 6.037 0 00-1.248 1.706 6.319 6.319 0 00-.541 2.205h11.315zm22.782 13.146c-1.664 0-3.149-.374-4.451-1.123a8.262 8.262 0 01-3.057-3.039l-.021-.04V30.4H71.05V.032h5.574v12.397c.776-1.331 1.789-2.357 3.037-3.078 1.275-.749 2.758-1.123 4.451-1.123 1.414 0 2.704.304 3.869.915a9.551 9.551 0 012.981 2.437l.014.018a10.545 10.545 0 011.935 3.544l.021.075c.47 1.387.707 2.843.707 4.368 0 1.581-.264 3.051-.79 4.41a11.071 11.071 0 01-2.131 3.589l.01-.011a10.273 10.273 0 01-3.183 2.345l-.062.026a9.278 9.278 0 01-3.963.874h-.076.004zm-1.539-4.742c.886 0 1.706-.166 2.454-.499.749-.36 1.386-.832 1.914-1.414s.928-1.262 1.206-2.038c.304-.776.458-1.608.458-2.496s-.139-1.733-.416-2.538a6.42 6.42 0 00-1.213-2.13l.007.008a5.708 5.708 0 00-1.758-1.441l-.031-.015a4.82 4.82 0 00-2.235-.541h-.056.003c-1.248 0-2.371.416-3.37 1.248a8.095 8.095 0 00-2.226 2.944l-.02.051v5.2c.194.555.47 1.054.832 1.498.387.443.818.832 1.29 1.165a7.2 7.2 0 001.539.749 5.506 5.506 0 001.62.25h.002z"/><path fill="var(--color7, #000)" d="M116.8 8.602c-.194-.194-.554-.458-1.082-.79a10.335 10.335 0 00-1.8-.931l-.072-.025a13.303 13.303 0 00-2.274-.811l-.097-.021a10.216 10.216 0 00-2.616-.333h-.005c-1.581 0-2.758.291-3.536.874-.776.582-1.165 1.4-1.165 2.454 0 .61.139 1.123.416 1.539.304.389.736.736 1.29 1.04.555.304 1.248.582 2.08.832.861.25 1.845.512 2.954.79 1.616.428 2.918.854 4.19 1.342l-.28-.094c1.194.443 2.192.998 2.995 1.664a6.73 6.73 0 011.914 2.413c.445.915.666 2.053.666 3.411 0 1.581-.304 2.939-.915 4.077a7.379 7.379 0 01-2.387 2.688l-.025.016c-.998.693-2.163 1.206-3.494 1.539a18.064 18.064 0 01-4.118.458c-2.218 0-4.41-.333-6.573-.998a20.3 20.3 0 01-5.887-2.871l.063.042 2.538-4.95c.25.25.694.582 1.331.998.666.389 1.443.79 2.33 1.206.888.389 1.872.72 2.954.998a13.37 13.37 0 003.328.416c3.162 0 4.742-1.013 4.742-3.037 0-.638-.179-1.179-.541-1.622-.36-.443-.874-.832-1.539-1.165a14.003 14.003 0 00-2.309-.889l-.104-.026c-.944-.277-1.997-.582-3.162-.915a29.816 29.816 0 01-3.902-1.322l.199.074c-1.026-.472-1.885-1.013-2.579-1.622a6.628 6.628 0 01-1.564-2.122l-.017-.041c-.333-.832-.499-1.816-.499-2.954 0-1.498.278-2.829.832-3.994a8.238 8.238 0 012.272-2.9l.016-.012c.98-.76 2.131-1.358 3.379-1.728l.074-.019a13.457 13.457 0 014.096-.624h.112-.006c2.08 0 3.994.333 5.741.998 1.747.638 3.274 1.4 4.576 2.288l-2.538 4.659zm21.442 20.675c-.749.333-1.664.666-2.746.998-1.004.317-2.16.499-3.357.499h-.057.003-.046a8.14 8.14 0 01-2.216-.305l.057.014a5.232 5.232 0 01-1.8-.923l.011.008a4.973 4.973 0 01-1.194-1.633l-.013-.031c-.304-.693-.458-1.525-.458-2.496V12.886h-2.87V8.601h2.87V1.529H132v7.072h4.576v4.285H132v10.65c0 .776.195 1.331.582 1.664.416.304.915.458 1.498.458s1.152-.096 1.706-.291c.555-.194.998-.36 1.331-.499l1.123 4.41zm10.808 1.539c-2.246 0-3.952-.72-5.117-2.163-1.165-1.442-1.747-3.578-1.747-6.406V8.602h5.574V21.04c0 3.355 1.206 5.034 3.619 5.034 1.082 0 2.122-.32 3.12-.957 1.026-.666 1.858-1.664 2.496-2.995V8.602h5.574v15.392c0 .582.096.998.291 1.248.221.25.568.389 1.04.416V30.4c-.722.159-1.551.25-2.402.25h-.012.001c-.998 0-1.818-.222-2.454-.666-.611-.472-.971-1.109-1.082-1.914l-.125-1.747c-.971 1.498-2.219 2.621-3.744 3.37-1.526.749-3.203 1.123-5.034 1.123zm29.334 0h-.094a9.87 9.87 0 01-4.128-.899l.062.025a9.882 9.882 0 01-3.278-2.403l-.008-.009a11.628 11.628 0 01-2.136-3.498l-.027-.079a12.783 12.783 0 01-.749-4.357v-.1.005c0-1.581.235-3.051.707-4.41.5-1.374 1.191-2.56 2.054-3.597l-.016.019a9.37 9.37 0 013.024-2.389l.054-.024a8.67 8.67 0 013.915-.873h-.005c1.608 0 3.051.389 4.326 1.165a8.451 8.451 0 013.015 2.998l.021.039V.032h5.574v23.962c0 .582.098.998.291 1.248s.526.389.998.416V30.4c-.971.194-1.762.291-2.371.291-.998 0-1.816-.25-2.454-.749a2.748 2.748 0 01-1.081-1.945l-.001-.011-.125-1.373a8.075 8.075 0 01-3.243 3.141l-.044.021a9.185 9.185 0 01-4.274 1.04h-.011.001zm1.456-4.742c.526 0 1.067-.083 1.622-.25a6.246 6.246 0 002.778-1.944l.009-.011c.389-.443.68-.928.874-1.456v-5.2a5.547 5.547 0 00-.964-1.673l.007.009a5.76 5.76 0 00-1.354-1.319l-.019-.012a6.229 6.229 0 00-1.58-.901l-.043-.015a4.39 4.39 0 00-1.663-.333h-.001c-.832 0-1.608.181-2.33.541a5.508 5.508 0 00-1.78 1.485l-.009.012a6.773 6.773 0 00-1.15 2.074l-.014.048a7.46 7.46 0 00-.416 2.483v.014-.001c0 .915.152 1.76.458 2.538.306.776.722 1.456 1.248 2.038s1.15 1.04 1.872 1.373a5.969 5.969 0 002.454.499zm17.578 4.326V8.602h5.574V30.4h-5.574zm0-24.835V.032h5.574v5.533h-5.574zm21.918 25.251c-1.776 0-3.37-.304-4.784-.915a11.194 11.194 0 01-3.618-2.453l-.001-.001a11.32 11.32 0 01-2.22-3.542l-.027-.077c-.5-1.255-.791-2.71-.791-4.232v-.055V19.472c0-1.53.29-2.992.818-4.334l-.028.08a10.898 10.898 0 012.251-3.583l-.005.005a10.85 10.85 0 013.549-2.469l.07-.027c1.414-.61 3.008-.915 4.784-.915 1.774 0 3.355.304 4.742.915a10.44 10.44 0 013.572 2.49l.006.006c.97.996 1.746 2.186 2.263 3.506l.025.072c.526 1.36.79 2.8.79 4.326v.046c0 1.525-.29 2.982-.818 4.319l.028-.08a11.435 11.435 0 01-2.254 3.627l.007-.008c-.971 1.026-2.163 1.845-3.578 2.454s-3.01.915-4.784.915zm-5.699-11.274c0 .971.138 1.858.416 2.662a7.058 7.058 0 001.206 2.038 5.872 5.872 0 001.83 1.373 5.531 5.531 0 002.246.458c.803 0 1.552-.152 2.246-.458a5.45 5.45 0 001.783-1.366l.006-.007a5.962 5.962 0 001.206-2.08c.304-.805.458-1.691.458-2.662 0-.944-.154-1.816-.458-2.621a5.992 5.992 0 00-1.211-2.086l.005.006a5.002 5.002 0 00-1.757-1.319l-.031-.013a5.057 5.057 0 00-2.208-.499h-.041.002-.041c-.802 0-1.56.184-2.236.513l.03-.013a5.906 5.906 0 00-1.826 1.367l-.005.005a6.903 6.903 0 00-1.191 2.032l-.016.048a7.802 7.802 0 00-.416 2.541v.084-.004z"/></symbol></defs></svg>