<svg width="10" height="16" viewBox="0 0 10 16" fill="none" xmlns="http://www.w3.org/2000/svg">
<mask id="path-1-inside-1" fill="white">
<path d="M8.5 0H1.5C0.672848 0 0 0.672848 0 1.5V14.5C0 15.3272 0.672848 16 1.5 16H8.5C9.32715 16 10 15.3272 10 14.5V1.5C10 0.672848 9.32715 0 8.5 0ZM1.5 1H8.5C8.77588 1 9 1.22412 9 1.5V12H1V1.5C1 1.22412 1.22412 1 1.5 1ZM8.5 15H1.5C1.22412 15 1 14.7759 1 14.5V13H9V14.5C9 14.7759 8.77588 15 8.5 15Z"/>
</mask>
<path d="M9 12V13H10V12H9ZM1 12H0V13H1V12ZM1 13V12H0V13H1ZM9 13H10V12H9V13ZM8.5 -1H1.5V1H8.5V-1ZM1.5 -1C0.120564 -1 -1 0.120564 -1 1.5H1C1 1.22513 1.22513 1 1.5 1V-1ZM-1 1.5V14.5H1V1.5H-1ZM-1 14.5C-1 15.8794 0.120564 17 1.5 17V15C1.22513 15 1 14.7749 1 14.5H-1ZM1.5 17H8.5V15H1.5V17ZM8.5 17C9.87944 17 11 15.8794 11 14.5H9C9 14.7749 8.77487 15 8.5 15V17ZM11 14.5V1.5H9V14.5H11ZM11 1.5C11 0.120564 9.87944 -1 8.5 -1V1C8.77487 1 9 1.22513 9 1.5H11ZM1.5 2H8.5V0H1.5V2ZM8.5 2C8.22359 2 8 1.77641 8 1.5H10C10 0.671836 9.32816 0 8.5 0V2ZM8 1.5V12H10V1.5H8ZM9 11H1V13H9V11ZM2 12V1.5H0V12H2ZM2 1.5C2 1.77641 1.77641 2 1.5 2V0C0.671836 0 0 0.671836 0 1.5H2ZM8.5 14H1.5V16H8.5V14ZM1.5 14C1.77641 14 2 14.2236 2 14.5H0C0 15.3282 0.671836 16 1.5 16V14ZM2 14.5V13H0V14.5H2ZM1 14H9V12H1V14ZM8 13V14.5H10V13H8ZM8 14.5C8 14.2236 8.22359 14 8.5 14V16C9.32816 16 10 15.3282 10 14.5H8Z" fill="black" mask="url(#path-1-inside-1)"/>
<path d="M2.35355 13.7389C2.54882 13.9213 2.54882 14.2169 2.35355 14.3992C2.15828 14.5816 1.84172 14.5816 1.64645 14.3992C1.45118 14.2169 1.45118 13.9213 1.64645 13.7389C1.84172 13.5566 2.15828 13.5566 2.35355 13.7389Z" fill="#757575"/>
</svg>
